# xmcd CD database file
#
# Track frame offsets:
#	225
#	24812
#	49382
#	73743
#	99844
#	124584
#	151328
#	177704
#	202721
#	228426
#	252312
#	282088
#	310648
#
# Disc length: 4418 seconds
#
# Revision: 1
# Processed by: cddbd v1.5.2PL0 Copyright (c) Steve Scherf et al.
# Submitted via: CDex 1.70beta2
#
DISCID=a6113f0d
DTITLE=Eyesee - The World of Silence
DYEAR=1900
DGENRE=New Age
TTITLE0=Our Abode of Peace
TTITLE1=Come Home to Me
TTITLE2=This Eternal Land
TTITLE3=Jewels of Light
TTITLE4=Love of the Spirits
TTITLE5=The Race of Remembering
TTITLE6=The Seed of Life
TTITLE7=I Am the Star of peace
TTITLE8=The Door of the Hearth
TTITLE9=Hear the Eternal Echo
TTITLE10=Star Light
TTITLE11=The Great Mantra
TTITLE12=Home Again
EXTD=
EXTT0=
EXTT1=
EXTT2=
EXTT3=
EXTT4=
EXTT5=
EXTT6=
EXTT7=
EXTT8=
EXTT9=
EXTT10=
EXTT11=
EXTT12=
PLAYORDER=
